# xmcd
#
# Track frame offsets: 
#        150
#        10435
#        19410
#        28280
#        41970
#        50945
#        60565
#        72200
#        80610
#        90435
#
# Disc length: 1365 seconds
#
# Revision: 0
# Processed by: cddbd v1.5.1PL2 Copyright (c) Steve Scherf et al.
# Submitted via: ExactAudioCopy v0.95b4
#
DISCID=8c05530a
DTITLE=Various Artist - Nashville Harmonica Plays Original Hits
DYEAR=1995
DGENRE=Country
TTITLE0=Battle Hymn Of The Republic
TTITLE1=Casey Jones
TTITLE2=Chicken Reel
TTITLE3=Tom Dooley
TTITLE4=Darlin' Nellie Gray
TTITLE5=Home Sweet Home
TTITLE6=I've Been Workin' On The Railroad
TTITLE7=Old Joe Clark
TTITLE8=Shenandoah
TTITLE9=Cindy
EXTD=
EXTT0=
EXTT1=
EXTT2=
EXTT3=
EXTT4=
EXTT5=
EXTT6=
EXTT7=
EXTT8=
EXTT9=
PLAYORDER=
